HIERARCHY
ROOT Hips
{
 OFFSET 0.000000 0.000000 0.000000
 CHANNELS 6 Xposition Yposition Zposition Yrotation Xrotation Zrotation
 JOINT Chest
 {
  OFFSET 0.000000 10.081381 0.003837
  CHANNELS 3 Yrotation Xrotation Zrotation
  JOINT Chest2
  {
   OFFSET 0.000000 11.149970 -0.006970
   CHANNELS 3 Yrotation Xrotation Zrotation
   JOINT Chest3
   {
    OFFSET 0.000000 10.074755 0.000000
    CHANNELS 3 Yrotation Xrotation Zrotation
    JOINT Chest4
    {
     OFFSET 0.000000 10.074755 0.000000
     CHANNELS 3 Yrotation Xrotation Zrotation
     JOINT Neck
     {
      OFFSET 0.000000 14.152669 0.000000
      CHANNELS 3 Yrotation Xrotation Zrotation
      JOINT Head
      {
       OFFSET 0.000000 9.374825 -0.016576
       CHANNELS 3 Yrotation Xrotation Zrotation
       End Site
       {
        OFFSET 0.000000 17.989483 -0.008658
       }
      }
     }
     JOINT RightCollar
     {
      OFFSET -3.036955 7.892397 0.000000
      CHANNELS 3 Yrotation Xrotation Zrotation
      JOINT RightShoulder
      {
       OFFSET -14.042521 0.000000 0.000000
       CHANNELS 3 Yrotation Xrotation Zrotation
       JOINT RightElbow
       {
        OFFSET -29.925339 0.000000 0.000000
        CHANNELS 3 Yrotation Xrotation Zrotation
        JOINT RightWrist
        {
         OFFSET -24.510696 0.000000 0.001899
         CHANNELS 3 Yrotation Xrotation Zrotation
         End Site
         {
          OFFSET -18.334084 0.000000 0.000000
         }
        }
       }
      }
     }
     JOINT LeftCollar
     {
      OFFSET 3.036955 7.892397 0.000000
      CHANNELS 3 Yrotation Xrotation Zrotation
      JOINT LeftShoulder
      {
       OFFSET 14.042521 0.000000 0.000000
       CHANNELS 3 Yrotation Xrotation Zrotation
       JOINT LeftElbow
       {
        OFFSET 29.925339 0.000000 0.000000
        CHANNELS 3 Yrotation Xrotation Zrotation
        JOINT LeftWrist
        {
         OFFSET 24.510696 0.000000 0.001899
         CHANNELS 3 Yrotation Xrotation Zrotation
         End Site
         {
          OFFSET 18.334084 0.000000 0.000000
         }
        }
       }
      }
     }
    }
   }
  }
 }
 JOINT RightHip
 {
  OFFSET -8.156645 -0.018803 -0.001919
  CHANNELS 3 Yrotation Xrotation Zrotation
  JOINT RightKnee
  {
   OFFSET 0.000000 -42.726507 0.001815
   CHANNELS 3 Yrotation Xrotation Zrotation
   JOINT RightAnkle
   {
    OFFSET 0.000000 -41.703583 0.009471
    CHANNELS 3 Yrotation Xrotation Zrotation
    JOINT RightToe
    {
     OFFSET 0.000000 -6.552816 14.546113
     CHANNELS 3 Yrotation Xrotation Zrotation
     End Site
     {
      OFFSET 0.000000 -1.509386 6.335350
     }
    }
   }
  }
 }
 JOINT LeftHip
 {
  OFFSET 8.156645 -0.018803 -0.001919
  CHANNELS 3 Yrotation Xrotation Zrotation
  JOINT LeftKnee
  {
   OFFSET 0.000000 -42.726507 0.001815
   CHANNELS 3 Yrotation Xrotation Zrotation
   JOINT LeftAnkle
   {
    OFFSET 0.000000 -41.703583 0.009471
    CHANNELS 3 Yrotation Xrotation Zrotation
    JOINT LeftToe
    {
     OFFSET 0.000000 -6.552816 14.546113
     CHANNELS 3 Yrotation Xrotation Zrotation
     End Site
     {
      OFFSET 0.000000 -1.509386 6.335350
     }
    }
   }
  }
 }
}
MOTION
Frames: 7
Frame Time: 0.016667
0.000000 90.815615 0.000000 0.000000 -5.826342 0.000000 0.000000 11.116423 0.000000 0.000000 -5.290081 0.000000 0.000000 0.000000 0.000000 0.000000 0.000000 0.000000 0.000000 12.665069 0.000000 0.000000 0.575450 0.000000 0.000000 0.000000 0.000000 0.000000 0.000000 0.000000 2.337306 0.000000 0.000000 -2.337306 0.000000 0.000000 0.000000 0.000000 0.000000 0.000000 0.000000 0.000000 -2.337306 0.000000 0.000000 2.337306 0.000000 0.000000 0.000000 8.578828 0.000000 0.000000 1.905768 0.000000 0.000000 -4.658254 0.000000 0.000000 0.000000 0.000000 0.000000 8.578828 0.000000 0.000000 1.905768 0.000000 0.000000 -4.658254 0.000000 0.000000 0.000000 0.000000
18.159517 88.490971 16.763399 -62.898744 -14.562735 -1.431491 -1.422309 3.918374 1.801640 -0.620662 1.766686 0.818892 -0.620662 1.766686 0.818892 -0.467829 1.324188 0.615915 -6.694266 19.904136 0.212895 -12.273343 1.056753 2.429667 2.349718 3.890156 8.875805 31.078107 14.938277 79.414505 -15.455705 13.523379 -13.405679 -6.595103 -13.466419 -30.131046 -4.864722 5.679216 -11.528542 -17.085555 14.678831 -78.592027 3.380149 1.915556 5.412003 14.905577 3.044191 38.511638 -150.275830 -15.017860 -21.244815 -1.831841 3.691118 1.782143 0.884431 -7.539927 15.281488 -0.019486 -0.031654 0.154075 -138.327899 -18.062060 -18.682856 17.166194 12.528319 9.421572 -21.153798 -23.264354 64.176244 0.198536 -0.138993 -0.042484
18.390065 88.473204 16.608500 -62.855625 -14.505870 -1.478460 -1.458596 3.859219 1.839927 -0.620329 1.762872 0.819172 -0.620329 1.762872 0.819172 -0.467575 1.321327 0.616121 -6.699186 19.900438 0.209157 -12.281385 1.049910 2.424686 2.343061 3.892764 8.872614 31.082125 14.946649 79.413673 -15.447701 13.519630 -13.388316 -6.588155 -13.469670 -30.140204 -4.864013 5.682917 -11.516284 -17.100887 14.671361 -78.601253 3.391783 1.897214 5.408779 14.901443 3.065531 38.508825 -150.860107 -15.167591 -21.071028 -1.703699 3.478245 1.879772 1.171493 -7.255780 15.133440 -0.014752 -0.037093 0.122235 -139.541565 -18.288711 -18.310047 17.813042 12.729435 9.533137 -20.493958 -23.436636 63.994960 0.226211 -0.166342 -0.044572
18.597442 88.456366 16.475692 -62.894785 -14.552211 -1.448971 -1.417519 3.908409 1.820571 -0.619167 1.759709 0.818393 -0.619167 1.759709 0.818393 -0.466697 1.318957 0.615531 -6.704776 19.893003 0.207976 -12.291643 1.036467 2.424902 2.339546 3.892747 8.878726 31.081582 14.945039 79.406522 -15.455258 13.531709 -13.371429 -6.591287 -13.491896 -30.150751 -4.864803 5.676256 -11.507071 -17.113445 14.680500 -78.607557 3.396643 1.877963 5.405452 14.895123 3.083727 38.512434 -151.328562 -15.503071 -20.930114 -1.507307 3.360471 1.975419 1.380144 -7.004935 15.030787 -0.016138 -0.026772 0.085191 -140.567391 -18.651431 -17.982335 18.449134 12.972459 9.665402 -19.937268 -23.541552 63.807285 0.223514 -0.233288 -0.050963
18.797528 88.432953 16.336192 -62.903963 -14.568890 -1.452945 -1.408216 3.930425 1.825458 -0.616377 1.757126 0.819012 -0.616377 1.757126 0.819012 -0.464603 1.317023 0.615984 -6.710357 19.883076 0.210665 -12.303211 1.018813 2.432385 2.337013 3.897120 8.878225 31.084754 14.936852 79.404036 -15.464353 13.539156 -13.355854 -6.587078 -13.505009 -30.158818 -4.863038 5.676151 -11.492401 -17.121667 14.675831 -78.612865 3.401769 1.864972 5.398118 14.892987 3.107331 38.522656 -151.873456 -15.898958 -20.791111 -1.186288 3.335167 2.048329 1.577636 -6.740559 14.967689 -0.028591 -0.050678 0.046792 -141.682263 -19.045667 -17.633325 19.315485 13.288114 9.834641 -19.501249 -23.636686 63.649844 0.253635 -0.318223 -0.068238
18.977545 88.402617 16.198307 -62.921730 -14.568293 -1.459623 -1.390273 3.941611 1.834413 -0.613824 1.752924 0.820124 -0.613824 1.752924 0.820124 -0.462686 1.313874 0.616807 -6.715771 19.873067 0.212781 -12.314307 1.000935 2.438785 2.333145 3.897687 8.879769 31.099585 14.937504 79.415731 -15.481370 13.525819 -13.360105 -6.577980 -13.504783 -30.159149 -4.863122 5.670966 -11.485890 -17.116992 14.681567 -78.616060 3.400699 1.854419 5.398313 14.893025 3.132302 38.528431 -152.463122 -16.343175 -20.602514 -0.791783 3.337421 2.089734 1.722390 -6.428129 14.904440 -0.023160 -0.082670 0.023428 -142.796678 -19.455651 -17.278417 20.160408 13.673087 10.020458 -18.977449 -23.722721 63.496830 0.296632 -0.427572 -0.097822
19.147460 88.366458 16.071561 -62.939573 -14.562192 -1.458331 -1.376620 3.943443 1.835149 -0.612140 1.745778 0.822431 -0.612140 1.745778 0.822431 -0.461420 1.308514 0.618526 -6.721689 19.863904 0.211640 -12.325278 0.984325 2.439337 2.328110 3.908692 8.873298 31.127754 14.943529 79.429185 -15.491237 13.495602 -13.364509 -6.578470 -13.491273 -30.145769 -4.862752 5.681245 -11.486932 -17.110035 14.685682 -78.616537 3.409968 1.846811 5.393556 14.889087 3.150729 38.529771 -153.027443 -16.784506 -20.406093 -0.392723 3.307208 2.118254 1.829495 -6.035707 14.865104 -0.022038 -0.134954 -0.002595 -143.718152 -19.821104 -16.977955 20.819495 14.050474 10.216538 -18.476555 -23.739342 63.354209 0.354386 -0.528748 -0.132975
